HIERARCHY
ROOT Root
{
  OFFSET 0.0 0.0 0.0
  CHANNELS 6 Xposition Yposition Zposition Zrotation Yrotation Xrotation
  JOINT Hips
  {
    OFFSET 0.0 100.0 0.0
    CHANNELS 6 Xposition Yposition Zposition Zrotation Yrotation Xrotation
    JOINT Spine1
    {
      OFFSET 5.003913 -0.037094 -0.013727
      CHANNELS 3 Zrotation Yrotation Xrotation
      JOINT Spine2
      {
        OFFSET 7.125363 -1e-06 0.0
        CHANNELS 3 Zrotation Yrotation Xrotation
        JOINT Chest
        {
          OFFSET 7.594027 1e-06 0.0
          CHANNELS 3 Zrotation Yrotation Xrotation
          JOINT Neck1
          {
            OFFSET 26.313086 -0.460272 -0.181672
            CHANNELS 3 Zrotation Yrotation Xrotation
            JOINT Neck2
            {
              OFFSET 8.045911 0.0 0.0
              CHANNELS 3 Zrotation Yrotation Xrotation
              JOINT Head
              {
                OFFSET 6.432774 0.0 0.0
                CHANNELS 3 Zrotation Yrotation Xrotation
                JOINT HeadEnd
                {
                  OFFSET 16.169773 0.06451 0.00362
                  CHANNELS 3 Zrotation Yrotation Xrotation
                }
                JOINT Jaw
                {
                  OFFSET 0.108741 3.12938 0.002639
                  CHANNELS 3 Zrotation Yrotation Xrotation
                }
                JOINT LeftEye
                {
                  OFFSET 4.45173 8.166359 3.206392
                  CHANNELS 3 Zrotation Yrotation Xrotation
                }
                JOINT RightEye
                {
                  OFFSET 4.436895 8.135758 -3.222429
                  CHANNELS 3 Zrotation Yrotation Xrotation
                }
              }
            }
          }
          JOINT LeftShoulder
          {
            OFFSET 23.218927 5.195579 1.621656
            CHANNELS 3 Zrotation Yrotation Xrotation
            JOINT LeftArm
            {
              OFFSET 15.902118 2e-06 -2e-06
              CHANNELS 3 Zrotation Yrotation Xrotation
              JOINT LeftForeArm
              {
                OFFSET 28.739307 0.0 -1e-06
                CHANNELS 3 Zrotation Yrotation Xrotation
                JOINT LeftHand
                {
                  OFFSET 27.093981 -4e-06 0.0
                  CHANNELS 3 Zrotation Yrotation Xrotation
                  JOINT LeftHandThumb1
                  {
                    OFFSET 2.276781 3.380274 0.83384
                    CHANNELS 3 Zrotation Yrotation Xrotation
                    JOINT LeftHandThumb2
                    {
                      OFFSET 4.705309 -1e-06 -1e-06
                      CHANNELS 3 Zrotation Yrotation Xrotation
                      JOINT LeftHandThumb3
                      {
                        OFFSET 2.798515 0.0 3e-06
                        CHANNELS 3 Zrotation Yrotation Xrotation
                        JOINT LeftHandThumbEnd
                        {
                          OFFSET 3.180793 4e-06 -4e-06
                          CHANNELS 3 Zrotation Yrotation Xrotation
                        }
                      }
                    }
                  }
                  JOINT LeftHandIndex1
                  {
                    OFFSET 3.247786 2.352677 0.137192
                    CHANNELS 3 Zrotation Yrotation Xrotation
                    JOINT LeftHandIndex2
                    {
                      OFFSET 6.367095 1e-06 0.0
                      CHANNELS 3 Zrotation Yrotation Xrotation
                      JOINT LeftHandIndex3
                      {
                        OFFSET 3.662364 0.0 0.0
                        CHANNELS 3 Zrotation Yrotation Xrotation
                        JOINT LeftHandIndex4
                        {
                          OFFSET 2.329242 4e-06 -4e-06
                          CHANNELS 3 Zrotation Yrotation Xrotation
                          JOINT LeftHandIndexEnd
                          {
                            OFFSET 2.767823 1e-06 0.0
                            CHANNELS 3 Zrotation Yrotation Xrotation
                          }
                        }
                      }
                    }
                  }
                  JOINT LeftHandMiddle1
                  {
                    OFFSET 3.163612 0.945023 -0.406112
                    CHANNELS 3 Zrotation Yrotation Xrotation
                    JOINT LeftHandMiddle2
                    {
                      OFFSET 6.276789 3e-06 0.0
                      CHANNELS 3 Zrotation Yrotation Xrotation
                      JOINT LeftHandMiddle3
                      {
                        OFFSET 4.35652 -1e-06 4e-06
                        CHANNELS 3 Zrotation Yrotation Xrotation
                        JOINT LeftHandMiddle4
                        {
                          OFFSET 2.996877 0.0 8e-06
                          CHANNELS 3 Zrotation Yrotation Xrotation
                          JOINT LeftHandMiddleEnd
                          {
                            OFFSET 2.323256 3e-06 -4e-06
                            CHANNELS 3 Zrotation Yrotation Xrotation
                          }
                        }
                      }
                    }
                  }
                  JOINT LeftHandRing1
                  {
                    OFFSET 2.882606 -0.309162 0.107445
                    CHANNELS 3 Zrotation Yrotation Xrotation
                    JOINT LeftHandRing2
                    {
                      OFFSET 6.033198 0.0 4e-06
                      CHANNELS 3 Zrotation Yrotation Xrotation
                      JOINT LeftHandRing3
                      {
                        OFFSET 4.350578 3e-06 0.0
                        CHANNELS 3 Zrotation Yrotation Xrotation
                        JOINT LeftHandRing4
                        {
                          OFFSET 2.651321 2e-06 -7e-06
                          CHANNELS 3 Zrotation Yrotation Xrotation
                          JOINT LeftHandRingEnd
                          {
                            OFFSET 1.937663 1e-06 -4e-06
                            CHANNELS 3 Zrotation Yrotation Xrotation
                          }
                        }
                      }
                    }
                  }
                  JOINT LeftHandPinky1
                  {
                    OFFSET 2.865315 -1.525436 0.575687
                    CHANNELS 3 Zrotation Yrotation Xrotation
                    JOINT LeftHandPinky2
                    {
                      OFFSET 5.54936 1e-06 -8e-06
                      CHANNELS 3 Zrotation Yrotation Xrotation
                      JOINT LeftHandPinky3
                      {
                        OFFSET 3.070974 0.0 -4e-06
                        CHANNELS 3 Zrotation Yrotation Xrotation
                        JOINT LeftHandPinky4
                        {
                          OFFSET 1.549672 1e-06 0.0
                          CHANNELS 3 Zrotation Yrotation Xrotation
                          JOINT LeftHandPinkyEnd
                          {
                            OFFSET 1.952123 0.0 0.0
                            CHANNELS 3 Zrotation Yrotation Xrotation
                          }
                        }
                      }
                    }
                  }
                }
              }
            }
          }
          JOINT RightShoulder
          {
            OFFSET 23.161716 5.296122 -1.380114
            CHANNELS 3 Zrotation Yrotation Xrotation
            JOINT RightArm
            {
              OFFSET -16.027195 -2e-06 1.1e-05
              CHANNELS 3 Zrotation Yrotation Xrotation
              JOINT RightForeArm
              {
                OFFSET -28.736639 4e-06 2e-06
                CHANNELS 3 Zrotation Yrotation Xrotation
                JOINT RightHand
                {
                  OFFSET -27.133619 6e-06 0.0
                  CHANNELS 3 Zrotation Yrotation Xrotation
                  JOINT RightHandThumb1
                  {
                    OFFSET -2.274328 -3.351035 -0.83067
                    CHANNELS 3 Zrotation Yrotation Xrotation
                    JOINT RightHandThumb2
                    {
                      OFFSET -4.703594 -3e-06 2e-06
                      CHANNELS 3 Zrotation Yrotation Xrotation
                      JOINT RightHandThumb3
                      {
                        OFFSET -2.794935 -4e-06 -3e-06
                        CHANNELS 3 Zrotation Yrotation Xrotation
                        JOINT RightHandThumbEnd
                        {
                          OFFSET -3.183852 4e-06 1e-06
                          CHANNELS 3 Zrotation Yrotation Xrotation
                        }
                      }
                    }
                  }
                  JOINT RightHandIndex1
                  {
                    OFFSET -3.253496 -2.33755 -0.127667
                    CHANNELS 3 Zrotation Yrotation Xrotation
                    JOINT RightHandIndex2
                    {
                      OFFSET -6.344434 0.0 0.0
                      CHANNELS 3 Zrotation Yrotation Xrotation
                      JOINT RightHandIndex3
                      {
                        OFFSET -3.654871 0.0 -8e-06
                        CHANNELS 3 Zrotation Yrotation Xrotation
                        JOINT RightHandIndex4
                        {
                          OFFSET -2.327586 -1e-06 0.0
                          CHANNELS 3 Zrotation Yrotation Xrotation
                          JOINT RightHandIndexEnd
                          {
                            OFFSET -2.770001 3e-06 8e-06
                            CHANNELS 3 Zrotation Yrotation Xrotation
                          }
                        }
                      }
                    }
                  }
                  JOINT RightHandMiddle1
                  {
                    OFFSET -3.168223 -0.944764 0.411762
                    CHANNELS 3 Zrotation Yrotation Xrotation
                    JOINT RightHandMiddle2
                    {
                      OFFSET -6.266691 -1e-06 -4e-06
                      CHANNELS 3 Zrotation Yrotation Xrotation
                      JOINT RightHandMiddle3
                      {
                        OFFSET -4.348901 0.0 0.0
                        CHANNELS 3 Zrotation Yrotation Xrotation
                        JOINT RightHandMiddle4
                        {
                          OFFSET -3.00024 2e-06 -4e-06
                          CHANNELS 3 Zrotation Yrotation Xrotation
                          JOINT RightHandMiddleEnd
                          {
                            OFFSET -2.321477 -4e-06 -4e-06
                            CHANNELS 3 Zrotation Yrotation Xrotation
                          }
                        }
                      }
                    }
                  }
                  JOINT RightHandRing1
                  {
                    OFFSET -2.885654 0.293261 -0.119232
                    CHANNELS 3 Zrotation Yrotation Xrotation
                    JOINT RightHandRing2
                    {
                      OFFSET -6.032835 -1e-06 -4e-06
                      CHANNELS 3 Zrotation Yrotation Xrotation
                      JOINT RightHandRing3
                      {
                        OFFSET -4.33881 0.0 -4e-06
                        CHANNELS 3 Zrotation Yrotation Xrotation
                        JOINT RightHandRing4
                        {
                          OFFSET -2.654903 -4e-06 -4e-06
                          CHANNELS 3 Zrotation Yrotation Xrotation
                          JOINT RightHandRingEnd
                          {
                            OFFSET -1.935122 0.0 4e-06
                            CHANNELS 3 Zrotation Yrotation Xrotation
                          }
                        }
                      }
                    }
                  }
                  JOINT RightHandPinky1
                  {
                    OFFSET -2.866241 1.503904 -0.60527
                    CHANNELS 3 Zrotation Yrotation Xrotation
                    JOINT RightHandPinky2
                    {
                      OFFSET -5.553177 -2e-06 0.0
                      CHANNELS 3 Zrotation Yrotation Xrotation
                      JOINT RightHandPinky3
                      {
                        OFFSET -3.062664 -1e-06 -4e-06
                        CHANNELS 3 Zrotation Yrotation Xrotation
                        JOINT RightHandPinky4
                        {
                          OFFSET -1.546529 2e-06 4e-06
                          CHANNELS 3 Zrotation Yrotation Xrotation
                          JOINT RightHandPinkyEnd
                          {
                            OFFSET -1.952341 0.0 -4e-06
                            CHANNELS 3 Zrotation Yrotation Xrotation
                          }
                        }
                      }
                    }
                  }
                }
              }
            }
          }
        }
      }
    }
    JOINT LeftLeg
    {
      OFFSET -8.443107 2.567604 10.043214
      CHANNELS 3 Zrotation Yrotation Xrotation
      JOINT LeftShin
      {
        OFFSET 43.229198 1e-06 -1e-06
        CHANNELS 3 Zrotation Yrotation Xrotation
        JOINT LeftFoot
        {
          OFFSET 42.298611 1e-06 1e-06
          CHANNELS 3 Zrotation Yrotation Xrotation
          JOINT LeftToeBase
          {
            OFFSET 14.165858 1e-06 0.0
            CHANNELS 3 Zrotation Yrotation Xrotation
            JOINT LeftToeEnd
            {
              OFFSET 6.7141 -0.234461 0.0
              CHANNELS 3 Zrotation Yrotation Xrotation
            }
          }
        }
      }
    }
    JOINT RightLeg
    {
      OFFSET -8.303923 2.592729 -10.047278
      CHANNELS 3 Zrotation Yrotation Xrotation
      JOINT RightShin
      {
        OFFSET -43.369682 0.0 1e-06
        CHANNELS 3 Zrotation Yrotation Xrotation
        JOINT RightFoot
        {
          OFFSET -42.260784 4e-06 2e-06
          CHANNELS 3 Zrotation Yrotation Xrotation
          JOINT RightToeBase
          {
            OFFSET -14.222245 -2e-06 -1e-06
            CHANNELS 3 Zrotation Yrotation Xrotation
            JOINT RightToeEnd
            {
              OFFSET -6.660062 0.232574 -2e-06
              CHANNELS 3 Zrotation Yrotation Xrotation
            }
          }
        }
      }
    }
  }
}
MOTION
Frames: 4
Frame Time: 0.03333333333333333
0.0 0.0 0.0 0.0 -0.0 0.0 0.508783 99.922653 -2.580336 91.373573 -3.822268 96.14624 -2.159981 0.150073 -0.162301 -11.529447 -0.416778 0.661708 18.087822 -0.362824 -1.7091 6.695728 -1.713202 2.832623 -2.527681 -0.339692 3.777474 -30.529171 -4.234853 7.479991 6e-06 1e-06 1e-06 0.053205 0.009871 -0.090997 0.089283 0.02159 -0.081632 0.137063 -0.01409 -0.092906 111.691582 -88.833832 -105.119316 60.430481 -25.415951 -41.714203 74.116875 1.571456 0.950895 0.85256 9.104915 -63.12413 17.636633 -26.322733 52.411201 -19.466665 -14.395597 29.410395 0.0 -8.774823 -1e-06 16.109594 -18.369019 6.390898 -0.609777 -1.795654 -3.889326 -4.80709 -11.046811 -2.93785 4e-06 -20.976019 -1e-06 -5.01997 -25.033558 -4.031882 6e-06 0.0 0.0 -10.634535 -5.686973 -3.565589 10.573275 -17.922951 -3.113902 3e-06 -13.821211 0.0 -0.501777 -31.181511 -4.02702 -11.711048 -59.786278 6.857642 -13.982716 -7.1502 -2.87504 13.772731 -8.401492 -3.218243 0.347735 -34.211555 0.771653 -0.963029 -17.733372 2.62102 -1e-06 -1e-06 -0.0 -17.346422 -20.095221 -4.201783 21.757559 -1.638375 3.866428 1e-06 -6.338824 1e-06 -1.697589 -22.591751 -6.19401 -2e-06 -3e-06 -2e-06 -42.297615 -75.97493 -128.392456 67.108429 -14.4528 -36.21777 69.33181 -0.303317 1.138579 -10.925902 14.141303 -38.205303 22.182116 -20.375889 49.933315 -16.701813 -16.743525 28.47653 -3e-06 -12.6906 -2e-06 15.66062 -17.631708 2.610906 -0.105921 -1.513855 -4.27588 -5.039041 -5.612874 -2.953557 5e-06 -11.02052 -2e-06 -6.111298 -15.895332 -3.840471 1e-06 -2e-06 0.0 -10.283369 -5.680289 -4.341839 11.028293 -11.302404 -2.372632 -1.384269 -14.238583 -6.320121 -0.625437 -26.924189 -3.827602 -4.486715 -49.155712 -3.078588 -13.708524 -7.363477 -3.720941 18.141148 -14.052739 -3.242673 5e-06 -18.78727 -3e-06 -0.429712 -8.456043 2.555504 -1e-06 0.0 -1e-06 -15.923536 -20.094482 -5.473585 30.41921 -7.190828 1.735926 1e-06 -8.162927 0.0 -1.861901 -22.861469 -6.167943 -0.0 -3e-06 -1e-06 170.624069 -5.479908 -21.66029 14.075861 -0.020229 0.270549 -75.02533 -1.688341 -5.282458 -4.890135 1.57698 2.15229 -0.999999 -1e-06 -0.0 -10.346543 -11.174547 -18.487329 17.261629 0.033545 0.012648 -77.240631 3.480143 -6.930758 -5.272969 0.382102 1.580831 -1.000003 -0.0 0.0 
0.0 0.0 0.0 0.0 -0.0 0.0 0.441766 99.927162 -2.68959 91.336212 -4.028713 96.078598 -2.101145 0.150902 -0.151756 -11.510941 -0.399951 0.706606 18.019251 -0.382173 -1.731001 6.131098 -1.520098 2.772808 -2.52399 -0.333175 3.862189 -30.770157 -4.066709 7.560491 6e-06 0.0 2e-06 0.050354 0.007574 -0.099036 0.098755 0.021438 -0.089924 0.143609 -0.018139 -0.100165 99.908783 -88.743057 -93.343796 59.908218 -25.110516 -41.915024 73.487968 1.463426 0.901269 0.723502 8.845364 -63.552719 17.636639 -26.322741 52.411213 -19.466667 -14.395597 29.410395 -0.0 -8.774823 -2e-06 16.01593 -18.345234 6.411695 -0.609776 -1.795655 -3.889329 -4.807088 -11.046813 -2.937852 5e-06 -20.976021 -2e-06 -5.019969 -25.033562 -4.031882 7e-06 -0.0 -0.0 -10.634535 -5.686973 -3.565589 10.573277 -17.922955 -3.113902 4e-06 -13.821209 1e-06 -0.501777 -31.181507 -4.027018 -11.704022 -59.646137 6.871075 -13.982716 -7.1502 -2.875043 13.772732 -8.401494 -3.218244 0.347736 -34.211555 0.771651 -0.963026 -17.733372 2.621019 -1e-06 0.0 -1e-06 -17.346424 -20.095224 -4.201783 21.757561 -1.638374 3.866429 2e-06 -6.338825 2e-06 -1.697588 -22.591751 -6.194009 -1e-06 -4e-06 -2e-06 -43.408188 -76.148056 -127.315796 67.289963 -14.373055 -36.389778 69.053665 -0.383739 1.199336 -10.924759 14.033918 -38.392315 22.182117 -20.375898 49.933319 -16.701815 -16.743532 28.47653 -2e-06 -12.690604 -1e-06 15.6224 -17.660587 2.623422 -0.105919 -1.513855 -4.275881 -5.039041 -5.612872 -2.953556 5e-06 -11.020523 -1e-06 -6.111297 -15.89533 -3.84047 1e-06 -0.0 0.0 -10.283369 -5.68029 -4.341839 11.028295 -11.302402 -2.372632 -1.384269 -14.238583 -6.320119 -0.625438 -26.924187 -3.8276 -4.49435 -49.045856 -3.070091 -13.708527 -7.363479 -3.720938 18.14115 -14.052739 -3.242673 6e-06 -18.787271 -3e-06 -0.42971 -8.456042 2.555504 -1e-06 -1e-06 -0.0 -15.923536 -20.094484 -5.473583 30.41921 -7.190824 1.735927 1e-06 -8.162927 -1e-06 -1.861901 -22.861469 -6.167945 1e-06 -2e-06 -1e-06 170.332047 -5.573036 -21.751991 14.11184 -0.017325 0.274023 -74.948563 -1.606875 -5.319182 -4.939003 1.567494 2.143956 -0.999998 -1e-06 0.0 -10.714494 -11.114076 -18.375841 17.354916 0.032009 0.015095 -77.208557 3.466971 -6.857091 -5.279572 0.402813 1.584702 -1.000002 -1e-06 -0.0 
0.0 0.0 0.0 0.0 -0.0 0.0 0.358936 99.927628 -2.804807 91.286446 -4.26949 95.992126 -2.030932 0.149835 -0.151639 -11.501791 -0.383637 0.751545 17.989697 -0.435434 -1.748672 5.595382 -1.283265 2.715459 -2.523381 -0.33399 3.936411 -31.05172 -3.905998 7.64299 7e-06 -0.0 -1e-06 0.046405 0.005609 -0.104918 0.107372 0.020798 -0.095303 0.145871 -0.020781 -0.106454 90.00116 -88.650124 -83.373978 59.289036 -24.927076 -42.117752 72.911919 1.334721 0.921485 0.550643 8.526889 -64.108299 17.636623 -26.322721 52.41119 -19.466665 -14.395598 29.410395 1e-06 -8.774822 -1e-06 15.928185 -18.32901 6.433353 -0.609776 -1.795654 -3.889328 -4.807089 -11.046809 -2.93785 2e-06 -20.976015 -2e-06 -5.01997 -25.033556 -4.031882 6e-06 0.0 -0.0 -10.634535 -5.686971 -3.565588 10.573275 -17.922949 -3.113903 3e-06 -13.821208 -0.0 -0.501778 -31.181505 -4.027021 -11.691422 -59.449078 6.906642 -13.982713 -7.150199 -2.875041 13.772731 -8.40149 -3.218242 0.347733 -34.211555 0.771653 -0.963028 -17.73337 2.621019 -1e-06 0.0 -0.0 -17.34642 -20.095217 -4.201784 21.757563 -1.638375 3.866427 1e-06 -6.338823 1e-06 -1.697585 -22.591742 -6.19401 -1e-06 -4e-06 -2e-06 -44.323856 -76.428413 -126.409523 67.536713 -14.374554 -36.408367 68.76915 -0.357463 1.226017 -10.91079 13.999538 -38.643688 22.182114 -20.375898 49.933327 -16.701817 -16.74353 28.476532 -2e-06 -12.690601 0.0 15.551884 -17.676294 2.67297 -0.105917 -1.513859 -4.275881 -5.03904 -5.612873 -2.953557 5e-06 -11.020523 -1e-06 -6.111297 -15.895336 -3.84047 1e-06 1e-06 0.0 -10.283371 -5.680291 -4.341838 11.028296 -11.302404 -2.372634 -1.384269 -14.238585 -6.320122 -0.625437 -26.924198 -3.827604 -4.5125 -48.94236 -3.035241 -13.708524 -7.363479 -3.720937 18.141153 -14.052739 -3.242676 6e-06 -18.787271 -3e-06 -0.429712 -8.456043 2.555504 -2e-06 1e-06 0.0 -15.923536 -20.09449 -5.473584 30.419222 -7.190827 1.735925 2e-06 -8.162927 -2e-06 -1.8619 -22.861473 -6.167945 0.0 -3e-06 -1e-06 169.964417 -5.694172 -21.824732 14.209818 -0.018619 0.273524 -74.88858 -1.558905 -5.33579 -4.965322 1.550929 2.132242 -0.999999 -1e-06 0.0 -11.157709 -11.039967 -18.249863 17.494698 0.031247 0.01427 -77.186661 3.456969 -6.774206 -5.260468 0.42591 1.588573 -1.000003 1e-06 0.0 
0.0 0.0 0.0 0.0 -0.0 0.0 0.267422 99.926979 -2.918672 91.233315 -4.513454 95.879654 -1.962795 0.145342 -0.163748 -11.491916 -0.373981 0.781678 17.987041 -0.519025 -1.755053 5.130731 -1.030289 2.664836 -2.530268 -0.331046 4.007349 -31.328377 -3.745008 7.724485 6e-06 0.0 1e-06 0.039854 0.003712 -0.109054 0.109227 0.01826 -0.098972 0.140913 -0.021366 -0.111242 82.58271 -88.582382 -75.827316 58.575096 -24.893505 -42.155163 72.418915 1.254313 0.989737 0.389618 8.183751 -64.745628 17.636629 -26.322729 52.41119 -19.466658 -14.395598 29.410385 -0.0 -8.774822 -1e-06 15.849268 -18.315413 6.428454 -0.609775 -1.795655 -3.889328 -4.807087 -11.046807 -2.937851 3e-06 -20.976017 0.0 -5.01997 -25.033552 -4.03188 6e-06 -0.0 -0.0 -10.634534 -5.686969 -3.565585 10.573275 -17.922951 -3.113903 4e-06 -13.821203 2e-06 -0.501781 -31.181505 -4.027015 -11.622926 -59.188332 6.886546 -13.982712 -7.150196 -2.875041 13.77273 -8.401491 -3.218241 0.347732 -34.211544 0.771657 -0.963029 -17.733366 2.621019 -2e-06 -0.0 0.0 -17.346416 -20.095213 -4.201784 21.757557 -1.638375 3.866431 2e-06 -6.338821 1e-06 -1.697589 -22.591742 -6.194005 0.0 -4e-06 -3e-06 -45.120728 -76.75621 -125.606239 67.747292 -14.47549 -36.283474 68.530762 -0.255857 1.193423 -10.90839 14.017359 -38.814457 22.182123 -20.375904 49.933323 -16.701807 -16.74353 28.47653 -2e-06 -12.690604 -1e-06 15.502322 -17.672171 2.712437 -0.10592 -1.513859 -4.275882 -5.039042 -5.612872 -2.953556 3e-06 -11.020523 -0.0 -6.111299 -15.895336 -3.84047 0.0 1e-06 -0.0 -10.283373 -5.680289 -4.341839 11.028295 -11.302401 -2.372631 -1.384271 -14.238585 -6.320121 -0.625439 -26.924194 -3.8276 -4.520999 -48.878399 -3.016266 -13.708527 -7.363479 -3.720939 18.141151 -14.052735 -3.242673 4e-06 -18.787271 -0.0 -0.429711 -8.456046 2.555504 -1e-06 1e-06 -1e-06 -15.923538 -20.094482 -5.473584 30.419222 -7.190827 1.735928 1e-06 -8.162927 -0.0 -1.861903 -22.861469 -6.167941 1e-06 -3e-06 -1e-06 169.597702 -5.828098 -21.894024 14.316811 -0.019241 0.279158 -74.834999 -1.566831 -5.36936 -4.982294 1.53189 2.122866 -0.999999 -0.0 0.0 -11.614964 -10.943125 -18.103546 17.641523 0.026545 0.012616 -77.171478 3.422366 -6.683068 -5.214077 0.446161 1.591839 -1.000001 -0.0 -0.0 
